<svg xmlns="http://www.w3.org/2000/svg" xml:space="preserve" width="120" height="120" data-id="lg_xIcwEgUA9uRtJQ8lFd" data-version="1" viewBox="0 0 2000 1500"><path fill="#fff" stroke="transparent" d="M0 0h2000v1500H0z"/><g data-padding="20"><g transform="translate(-1062.5 -792.303)scale(2.00853)"><rect width="580.325" height="201.14" x="487.329" y="417.934" fill="none" rx="0" ry="0" transform="matrix(.96 0 0 .96 280.48 443.54)"/><path fill="#111" d="m813.472 881.38-5.635 1.027q-2.054.51-3.158 1.622-1.114 1.114-1.114 2.995v94.666q0 3.158 1.968 4.531 1.958 1.363 6.154 1.363h18.104q4.963 0 8.381-1.286 3.418-1.277 6.02-4.522 2.6-3.244 5.164-9.148l4.877-11.53q.768-1.709 1.92-2.352t2.688-.298q1.709.26 2.4 1.412.681 1.152.163 3.12l-7.344 29.904q-.682 2.476-1.834 3.667-1.161 1.2-3.206 1.2-1.622 0-3.12-.807-1.498-.816-3.293-1.632-1.795-.806-4.608-.806h-63.224q-2.141 0-3.168-.854-1.018-.855-1.018-2.228 0-2.563 3.245-3.417l5.635-1.018q2.054-.518 3.168-1.622 1.104-1.114 1.104-2.995v-95.349q0-1.88-1.104-2.995-1.114-1.113-3.168-1.622l-5.635-1.027q-3.245-.855-3.245-3.418 0-1.45 1.018-2.266 1.027-.806 3.168-.806h37.766q2.218 0 3.197.806.989.816.989 2.266 0 2.563-3.255 3.418m134.737 63.217q0 3.85-2.314 5.943-2.304 2.092-6.749 2.092h-54.595v-5.472h41.011q4.272 0 4.272-3.753 0-11.453-4.953-17.818t-13.239-6.365q-6.499 0-11.414 3.677-4.906 3.667-7.728 10.464-2.822 6.787-2.822 16.023 0 17.001 8.16 25.795 8.16 8.803 21.321 8.803 8.458 0 14.698-3.84 6.23-3.85 8.793-10.166 1.114-1.373 1.844-1.93.72-.557 1.574-.557 1.114 0 1.67 1.027.557 1.028.47 2.39-.518 7.01-5.087 12.817-4.57 5.817-12.173 9.273-7.603 3.466-17.347 3.466-11.962 0-21.149-5.05-9.178-5.04-14.266-14.13-5.078-9.102-5.078-21.409 0-12.47 4.954-22.253t14.14-15.465q9.188-5.683 21.83-5.683 10.503 0 18.154 4.1 7.652 4.098 11.837 11.317t4.186 16.704m18.978-23.309-4.617-1.2q-2.141-.595-2.947-1.363-.816-.778-.816-1.796 0-1.286.94-1.968.941-.68 2.564-.68h5.472q2.217 0 3.628-.73t2.439-2.689l6.921-12.48q1.277-1.958 2.516-2.813 1.238-.854 2.61-.854 1.45 0 2.257.893.816.902.816 2.525v75.273q0 5.895 2.438 9.015 2.429 3.11 6.787 3.11 3.082 0 4.83-1.066 1.756-1.065 2.774-2.438 1.027-1.363 1.881-2.477.855-1.104 2.227-1.104 1.018 0 1.623.682.595.681.595 2.217 0 3.677-2.65 7.008t-7.305 5.472q-4.656 2.132-10.637 2.132-9.398 0-14.947-4.868-5.559-4.867-5.559-14.784v-50.15q0-2.054-.854-3.12t-2.986-1.747m36.74-.346h-22.992v-6.662h26.918q1.709 0 2.602.643.902.634.902 1.92 0 1.795-1.795 2.947t-5.635 1.152m55.699 69.284q6.413 0 10.09-3.33 3.667-3.332 3.667-8.63 0-3.333-1.536-5.944-1.536-2.602-5.597-4.78-4.061-2.18-11.578-4.148-11.789-2.65-18.451-6.614-6.662-3.975-9.398-9.063-2.736-5.078-2.736-11.145 0-10.858 7.776-17.434t22.3-6.576q5.376 0 8.842.893 3.456.902 5.77 1.881 2.304.98 4.099.98 1.709 0 2.601-.98.903-.979 1.757-1.92.855-.94 2.39-.94 1.028 0 1.834.681.816.682 1.411 2.563l6.24 18.03q.855 2.303.557 3.84-.297 1.545-1.93 2.226-1.622.596-2.774-.048-1.152-.633-2.179-2.256-3.754-7.094-8.198-11.155t-9.36-5.77q-4.906-1.708-10.205-1.708-8.035 0-12.096 3.38-4.051 3.37-4.051 9.1 0 3.331 1.708 6.105t6.23 5.127q4.532 2.352 12.903 4.483 10.426 2.477 16.58 6.115 6.153 3.63 8.841 8.63 2.688 4.993 2.688 11.655 0 6.758-3.37 11.962-3.379 5.212-9.57 8.16-6.193 2.947-14.487 2.947-5.203 0-8.458-1.104-3.245-1.114-5.424-2.18-2.179-1.065-4.137-1.065-1.71 0-2.736 1.066t-1.93 2.18q-.893 1.103-2.256 1.103-1.027 0-1.709-.72-.691-.73-1.027-2.439l-3.677-17.088q-.595-2.985-.336-4.444.25-1.45 1.709-1.959 1.536-.605 2.688.211 1.152.807 2.438 2.861 4.868 9.226 11.146 13.248 6.278 4.013 12.94 4.013m95.521-1.2q-12.048-1.958-17.481-3.504-5.424-1.536-6.835-2.986-1.402-1.45-1.402-2.908 0-1.71 1.277-3.159 1.286-1.45 4.445-2.909l-2.218-1.19q-6.922 1.104-10.858 3.245-3.926 2.131-5.548 4.915-1.623 2.774-1.623 5.846 0 3.677 2.304 6.413t8.842 5.002q6.537 2.256 19.18 4.31 10.34 1.71 16.061 3.763 5.732 2.045 7.95 4.57 2.217 2.515 2.217 5.683 0 4.272-2.775 7.383-2.774 3.12-8.544 4.79-5.77 1.66-14.822 1.66-15.802 0-22.34-4.742-6.537-4.742-6.537-12.345 0-5.04 4.781-9.09 4.79-4.062 14.189-5.262l-1.795-2.477q-17.52 2.14-24.394 7.814-6.883 5.684-6.883 12.692 0 5.635 3.974 10.128 3.975 4.483 12.778 7.084 8.793 2.612 23.405 2.612 21.705 0 33.283-7.008 11.577-7.008 11.577-17.943 0-5.98-2.995-10.29-2.985-4.32-10.032-7.307-7.056-2.995-19.18-4.79m6.75-72.797-2.823 5.213 4.531.94q3.331-5.98 5.462-7.938 2.141-1.968 4.618-1.968 2.045 0 3.331 1.113 1.277 1.104 2.304 2.563 1.027 1.45 2.352 2.602t3.629 1.152q3.168 0 5.04-2.304 1.882-2.304 1.882-6.154 0-4.53-3.034-7.132-3.034-2.612-7.9-2.612-5.56 0-10.638 3.64-5.088 3.628-8.755 10.885m18.623 27.091q0-8.716-4.57-15.638-4.569-6.922-12.815-10.934-8.247-4.013-19.354-4.013-11.28 0-19.997 4.1t-13.584 11.49-4.867 17.213q0 8.63 4.608 15.59 4.618 6.97 12.864 11.03 8.246 4.052 19.267 4.052 11.28 0 19.949-4.138 8.669-4.147 13.584-11.577 4.915-7.44 4.915-17.175m-39.984-24.604q8.794-.346 14.39 6.614 5.597 6.97 6.538 19.267.855 11.79-3.37 18.375-4.233 6.576-12.777 6.921-5.894.25-10.378-2.822-4.492-3.072-7.219-8.976-2.736-5.895-3.331-14.007-.605-7.948 1.104-13.545t5.51-8.583q3.802-2.995 9.533-3.244m101.683-6.145q12.557 0 22.128 5.338t14.995 14.822 5.424 21.878q0 12.04-5.51 21.524t-15.168 14.908q-9.658 5.434-22.474 5.434-12.47 0-22.042-5.386t-14.995-14.87-5.424-21.782q0-12.22 5.472-21.62 5.463-9.398 15.159-14.822 9.705-5.424 22.435-5.424m5.98 76.637q7.172-1.027 11.617-5.856 4.444-4.82 5.942-12.98 1.488-8.16-.307-19.18-1.872-11.194-6.106-18.547-4.224-7.344-10.291-10.59-6.067-3.254-13.42-2.226-7.086 1.027-11.578 5.856-4.484 4.828-5.933 12.988-1.45 8.16.336 19.181 1.881 11.107 6.115 18.5 4.224 7.382 10.291 10.636 6.067 3.245 13.335 2.218m-19.038-190.504h-404.8l202.4-300.8Z"/><path fill="#c4ad27" d="M1118.267 639.602q-.316-.507-.738-.95l-.844-.844a4.2 4.2 0 0 0-.929-.696c-9.39-5.655-26.923-.38-39.056 11.774l-17.745 17.745-80.602-5.38h-.38c-6.688.084-11.773 3.776-12.934 9.368-1.14 5.528 1.751 13.862 13.673 19.243l38.423 19.222c-6.288 7.385-18.146 21.67-24.033 31.27l-22.387 2.511a4.853 4.853 0 0 0-4.304 5.402l1.371 12.406a4.85 4.85 0 0 0 4.157 4.305l16.184 2.3 2.32 16.162a4.85 4.85 0 0 0 4.242 4.157l12.427 1.393a4.916 4.916 0 0 0 5.381-4.326l2.532-22.43c9.622-5.907 23.885-17.723 31.27-24.01l19.243 38.464c4.664 10.34 11.584 13.884 16.923 13.884q1.223 0 2.3-.21c5.612-1.182 9.283-6.246 9.368-12.935v-.4l-5.38-80.603 17.744-17.724c12.154-12.154 17.43-29.688 11.795-39.098m-38 51.484a4.85 4.85 0 0 0-1.414 3.798l5.486 82.585c-.043 1.477-.465 3.102-1.583 3.313-1.646.337-5.423-1.562-8.398-8.187l-.084-.19-22.07-44.162a4.853 4.853 0 0 0-7.597-1.477c-.232.21-24.729 21.67-36.545 28.232a4.85 4.85 0 0 0-2.49 3.734l-2.215 20.003-3.798-.422-2.237-15.593a4.85 4.85 0 0 0-1.646-3.017 4.85 4.85 0 0 0-3.038-1.646l-15.614-2.237-.422-3.798 20.003-2.236a4.85 4.85 0 0 0 3.713-2.49c6.563-11.816 28.021-36.292 28.253-36.545a4.895 4.895 0 0 0-1.477-7.596l-44.162-22.07-.19-.085c-6.604-2.975-8.545-6.73-8.187-8.398.211-1.097 1.836-1.54 3.334-1.582l82.586 5.486c1.392.105 2.764-.422 3.776-1.414l19.307-19.307c9.748-9.748 21.838-12.66 26.586-10.592 2.068 4.748-.844 16.86-10.571 26.586Z"/><path fill="#c4ad27" d="M975.061 721.26a4.879 4.879 0 0 0-6.9-6.9l-36.101 36.08a4.887 4.887 0 0 0 6.9 6.921Zm57.498 61.38-31.228 31.227a4.879 4.879 0 1 0 6.9 6.9l31.228-31.229a4.879 4.879 0 1 0-6.9-6.9m-60.494-5.823-32.198 32.198a4.879 4.879 0 0 0 6.9 6.9l32.177-32.198a4.895 4.895 0 0 0-6.9-6.9"/></g><path fill="transparent" stroke="transparent" stroke-width="2.083" d="M419.792 187.5h1160.416v1125H419.792z"/></g></svg>